<svg width="546" height="235" viewBox="0 0 546 235" fill="none" xmlns="http://www.w3.org/2000/svg">
<g clip-path="url(#clip0)">
<path fill-rule="evenodd" clip-rule="evenodd" d="M56.7274 227.509L80.9027 202.81L106.101 210.617L111.857 205.626L119.276 212.792L139.103 198.843L167.499 198.587L174.023 207.673L177.348 187.71L188.477 185.15L195.64 173.377L223.78 179.519L210.861 158.276L210.35 141.256L235.42 144.839L219.687 139.592L222.118 125.387L217.129 114.637L226.083 111.438L232.606 118.86L240.921 107.855C240.921 107.855 257.421 113.23 257.933 113.485C258.445 113.741 281.98 111.31 281.98 111.31C281.98 111.31 277.12 124.235 275.841 124.235C274.561 124.235 249.747 121.676 247.7 122.699C245.653 123.723 241.304 133.705 241.56 137.032C241.816 140.36 242.008 143.327 241.56 144.967C240.081 150.387 235.165 148.806 230.56 153.157C225.955 157.508 229.025 163.395 230.56 167.49C232.095 171.585 229.025 186.174 229.025 187.454C229.025 188.733 214.187 192.061 209.582 195.132C204.977 198.203 203.187 211.768 201.14 213.304C199.093 214.84 178.372 217.911 174.278 215.096C170.185 212.28 156.371 210.745 150.487 213.816C144.603 216.887 137.696 220.471 135.137 221.494C132.579 222.518 115.695 222.262 113.648 219.959C111.602 217.655 100.509 217.826 93.9498 218.423C89.6446 218.815 85.6091 220.705 81.4144 221.75C73.2154 223.794 56.7274 227.509 56.7274 227.509Z" fill="#C4AB95"/>
<path d="M56.7274 227.509L80.9027 202.81L106.101 210.617L111.857 205.626L119.276 212.792L139.103 198.843L167.499 198.587L174.023 207.673L177.348 187.71L188.477 185.15L195.64 173.377L223.78 179.519L210.861 158.276L210.35 141.256L235.42 144.839L219.687 139.592L222.118 125.387L217.129 114.637L226.083 111.438L232.606 118.86L240.921 107.855C240.921 107.855 257.421 113.23 257.933 113.485C258.445 113.741 281.98 111.31 281.98 111.31" stroke="#453C35" stroke-width="1.12889"/>
<path fill-rule="evenodd" clip-rule="evenodd" d="M24.0307 117.632L31.2576 114.308L36.7124 113.108L37.4156 99.6118L28.8279 99.9933L21.1517 105.052L24.0307 117.632Z" fill="#4B3977"/>
<path d="M23.9517 117.795C27.0619 116.482 35.022 112.743 37.3476 112.239" stroke="#3D305F" stroke-width="0.564444"/>
<path fill-rule="evenodd" clip-rule="evenodd" d="M20.5603 94.6735L28.4908 95.2813L34.023 94.5135L39.3633 106.927L31.177 109.55L22.2231 107.471L20.5603 94.6735Z" fill="#4B3977"/>
<path d="M19.9799 93.7925C24.0182 95.7452 32.2255 94.9876 34.4707 94.3535" stroke="#3D305F" stroke-width="0.564444"/>
<path d="M21.0307 119.244C27.3666 118.079 31.439 111.343 30.1268 104.199C28.8145 97.0546 22.6146 92.2072 16.2787 93.372C9.94291 94.5368 5.87047 101.273 7.1827 108.417C8.49492 115.562 14.6949 120.409 21.0307 119.244Z" fill="#3D305F"/>
<path d="M20.8208 118.101C26.5043 117.056 30.1575 111.014 28.9804 104.605C27.8032 98.1961 22.2416 93.8477 16.558 94.8926C10.8745 95.9375 7.22128 101.98 8.39842 108.389C9.57555 114.798 15.1372 119.146 20.8208 118.101Z" fill="#A591D5"/>
<path d="M18.4363 110.05C19.2907 109.697 19.5022 108.229 18.9087 106.772C18.3152 105.314 17.1415 104.419 16.2871 104.772C15.4327 105.126 15.2212 106.594 15.8147 108.051C16.4082 109.509 17.5819 110.404 18.4363 110.05Z" fill="#3D305F"/>
<path d="M26.8713 99.5175C26.699 101.414 25.9759 107.492 23.5979 109.838C20.9303 112.47 18.789 114.877 10.8369 113.908C12.0619 115.512 13.6298 116.745 15.3826 117.481C17.1355 118.217 19.0113 118.431 20.8209 118.101C22.1724 117.853 23.4555 117.307 24.5969 116.494C25.7383 115.681 26.7158 114.618 27.4735 113.365C28.2312 112.111 28.7542 110.693 29.0128 109.19C29.2714 107.687 29.2604 106.129 28.9804 104.605C28.6415 102.763 27.9185 101.019 26.8713 99.5175Z" fill="#9685C0"/>
<path fill-rule="evenodd" clip-rule="evenodd" d="M86.4029 76.2454C84.5819 69.2483 79.1405 65.3701 70.9256 64.216C68.9927 61.4252 67.8142 58.9103 63.8904 56.9215C59.823 56.1191 54.3656 55.3437 48.4131 56.7936C45.0403 63.6862 42.6831 75.8464 46.7502 82.644C53.1519 93.3436 67.3814 94.9211 79.112 90.7063C85.389 88.451 88.0836 82.7028 86.4029 76.2454Z" fill="#284021"/>
<path fill-rule="evenodd" clip-rule="evenodd" d="M56.7928 57.5403C54.5052 57.4416 52.0374 57.6191 49.4863 58.1641C48.0243 61.3688 46.762 65.6572 46.3116 69.9155C45.8297 74.4709 46.3007 78.9166 48.0611 81.859C51.0227 86.8088 55.747 89.6339 61.2421 90.7709C66.7372 91.9078 72.9722 91.2881 78.5954 89.2677C84.2258 87.2447 86.4487 82.4875 84.9242 76.63C83.2555 70.2184 78.5529 66.8312 70.7128 65.7297C70.504 65.7003 70.3034 65.6281 70.1239 65.5174C69.9443 65.4068 69.7895 65.2602 69.6693 65.0868C67.6908 62.2299 66.7728 60.1688 63.3481 58.3799C61.4042 58.0022 59.2002 57.6442 56.7928 57.5403Z" fill="#A5CA9A"/>
<path fill-rule="evenodd" clip-rule="evenodd" d="M93.566 68.0552C86.5271 65.8803 82.638 75.35 75.3082 75.0289C66.9456 74.6626 59.0519 72.2817 51.1618 69.7505C45.5413 67.9474 38.696 65.8303 33.1769 68.8161C28.7156 71.2296 29.8469 77.2744 29.365 81.6198C28.1718 92.3773 29.4747 103.259 29.8054 114.062C30.0988 123.643 30.9649 133.224 30.8235 142.802C30.7084 150.595 24.7341 156.458 23.6042 164.109C22.356 172.561 22.0383 182.608 28.0751 189.117C35.4047 197.02 46.7932 200.639 57.3231 200.561C65.09 200.503 71.7802 194.899 77.269 189.678C85.1301 182.2 86.9129 170.992 87.4383 160.675C87.9271 151.077 89.4869 141.466 93.633 132.689C98.5236 122.336 103.947 111.653 103.642 99.803C103.394 90.17 104.26 79.3281 97.929 71.3678C96.7841 69.9284 95.3241 68.5984 93.566 68.0552Z" fill="#284021"/>
<path fill-rule="evenodd" clip-rule="evenodd" d="M39.78 69.6828C37.7658 69.6567 35.9459 70.001 34.2987 70.8921C32.866 71.6672 32.4 72.8148 32.1139 74.826C31.8278 76.8373 31.9857 79.3866 31.7092 81.8796C30.556 92.2767 31.827 103.046 32.1621 113.99C32.4526 123.477 33.325 133.094 33.1811 142.838C33.1148 147.328 31.387 151.098 29.7156 154.54C28.0442 157.981 26.4271 161.137 25.9373 164.454C24.7201 172.696 24.6186 181.921 29.8044 187.512C36.5497 194.785 47.3283 198.276 57.3054 198.201C63.9486 198.152 70.238 193.111 75.644 187.968C82.7813 181.179 84.5665 170.688 85.0826 160.555C85.5802 150.782 87.1684 140.853 91.5009 131.681C96.4116 121.286 101.57 110.958 101.285 99.8634C101.032 90.0435 101.701 79.8991 96.0841 72.8376C95.1067 71.6089 93.942 70.6402 92.8695 70.3089C91.6293 69.9257 90.734 70.0367 89.6359 70.4681C88.5377 70.8994 87.3057 71.7358 85.9516 72.7412C83.2435 74.752 79.9003 77.5919 75.2049 77.3862C66.461 77.0032 58.358 74.5368 50.4418 71.9973C46.9409 70.8742 43.1376 69.7262 39.78 69.6828Z" fill="#A5CA9A"/>
<path fill-rule="evenodd" clip-rule="evenodd" d="M82.5718 93.4114L84.0192 117.482L81.1245 131.508L68.9143 159.198L59.2362 188.516C58.9403 191.723 58.1392 194.976 59.0718 198.071C65.0621 197.251 70.7195 192.653 75.644 187.968C76.5535 187.103 77.3746 186.177 78.1188 185.2L80.13 180.825L82.6751 176.071C84.2015 171.182 84.8144 165.82 85.0826 160.555C85.5802 150.782 87.1684 140.853 91.5009 131.681C96.4115 121.286 101.57 110.958 101.285 99.8634C101.282 99.7748 101.282 99.6857 101.28 99.5971L82.5718 93.4114Z" fill="#84A67A"/>
<path fill-rule="evenodd" clip-rule="evenodd" d="M70.8489 85.2518C70.142 85.2483 69.4651 85.2819 68.824 85.3575C64.7495 85.8376 59.5491 87.5055 58.0604 91.3304C57.1956 93.5525 61.2048 95.9019 60.3218 98.1168C59.5622 100.022 54.805 98.9631 54.8948 101.012C54.9623 102.551 58.9089 101.3 59.146 102.822C59.3237 103.963 56.6973 103.943 56.5228 105.085C56.1687 107.401 60.7173 108.764 60.2315 111.057C59.6128 113.977 56.5021 120.534 52.2717 123.273C47.217 126.546 35.7818 121.243 32.3893 119.539C32.5205 122.282 32.6696 125.036 32.8077 127.8C38.4259 131.934 48.2843 130.146 54.3066 126.486C59.2699 123.469 62.6687 116.957 62.5831 111.147C62.5521 109.039 59.5664 107.776 59.4175 105.673C59.3406 104.586 60.9859 103.674 60.6385 102.642C60.2632 101.526 57.5224 102.005 57.6083 100.832C57.7322 99.1388 61.5427 100.399 62.3115 98.886C63.2676 97.0046 60.0605 94.702 60.819 92.7325C61.8022 90.1797 64.8875 88.445 67.6023 88.1174C78.0491 86.8567 88.7822 105.503 97.1788 99.1577C98.5703 98.1062 99.1993 96.3298 99.2665 94.3612L98.6713 93.6831C98.6713 93.6831 81.4533 85.3032 70.8489 85.2518Z" fill="#84A67A"/>
<path fill-rule="evenodd" clip-rule="evenodd" d="M63.2922 179.547C65.7372 172.893 67.4073 165.942 70.143 159.409C73.3062 151.855 77.7038 144.81 80.5008 137.124C82.2222 132.394 83.4561 127.449 84.2056 122.477C84.8698 118.072 85.5553 113.643 85.1954 109.159C84.8015 104.252 84.7779 99.3241 83.942 94.4591C83.5517 92.1876 83.6407 89.736 82.2132 87.8417C81.8738 87.3913 79.6841 89.0624 79.8473 90.071C80.8543 96.2968 82.1709 102.513 82.5611 108.801C82.814 112.877 83.2278 117.109 82.3083 121.067C80.6886 128.038 78.3821 134.862 75.8234 141.54C73.248 148.262 69.8074 154.641 67.332 161.398C64.0716 170.298 60.5415 179.156 58.125 188.31C57.7982 189.548 57.676 190.803 59.0704 191.788C60.9675 192.69 62.4083 182.319 63.2922 179.547Z" fill="#284021"/>
<path d="M34.2728 148.249C34.2728 148.249 37.2204 152.403 42.9573 154.539C50.0251 157.169 53.7006 158.22 59.3513 159.036C67.4602 160.207 71.8989 159.107 71.8989 159.107" stroke="#284021" stroke-width="1.12889" stroke-linecap="round"/>
<path fill-rule="evenodd" clip-rule="evenodd" d="M34.9161 155.143C34.1781 155.249 34.6667 156.268 34.6643 156.695C35.1217 160.151 35.4802 163.449 36.2952 166.548C34.2873 167.456 32.4764 168.416 30.884 169.709C30.5407 168.364 30.4526 166.92 30.434 165.488C30.2197 165.015 29.6117 165.566 29.7973 166.022C29.3769 167.657 31.0094 169.752 29.6818 170.784C29.0491 171.534 28.2246 172.281 27.946 173.315C27.9896 173.795 28.5481 173.726 28.6246 173.291C29.1788 172.612 30.4868 169.93 30.804 171.714C31.4436 173.629 32.3349 175.446 33.4119 177.262C32.3835 178.281 31.323 179.434 30.8446 181.026C30.9181 181.594 31.5852 181.481 31.5848 180.982C32.164 179.967 33.0876 178.036 33.9915 178.237C35.0666 180.019 36.3237 181.807 37.7112 183.567C36.8921 184.531 35.9605 185.493 35.4239 186.777C35.4551 187.322 36.1931 187.339 36.2386 186.859C36.8927 186.141 37.5996 184.139 38.5052 184.58C39.8996 186.261 41.285 188.015 42.7226 189.603C43.2097 189.846 43.4572 189.147 43.0072 188.865C41.5943 187.187 40.1073 185.489 38.7125 183.771C40.2623 182.233 42.1013 180.981 44.2174 179.676C46.7446 181.872 49.6285 183.932 52.1529 185.951C52.4079 186.445 53.3751 186.446 53.1784 185.84C52.3816 185.041 51.285 184.408 50.3777 183.612C48.6058 182.164 46.5906 180.839 44.9096 179.296C46.9316 178.156 49.5478 177.377 52.2527 176.684C53.7633 177.881 55.2836 179.125 56.8598 180.141C57.487 180.258 57.5633 179.449 56.988 179.298C55.9799 178.39 53.7289 177.185 53.5511 176.353C54.7767 175.948 56.7556 175.851 56.8426 174.473C56.6957 173.94 55.7862 174.207 55.8185 174.692C54.3201 175.663 51.8707 176.151 50.9897 174.356C49.9944 173.137 47.8783 171.379 48.221 170.277C50.2645 169.868 52.8769 167.851 54.5804 168.43C55.6394 169.307 56.759 170.301 58.1362 170.776C58.7298 170.74 58.6903 169.988 58.1519 169.924C57.3035 169.297 54.9518 168.238 55.5135 167.512C57.6185 166.632 59.6725 165.887 61.3277 164.879C61.6244 164.456 60.9994 164.034 60.6592 164.398C58.8276 165.335 56.7191 166.207 54.476 167.086C53.1525 165.708 52.4134 163.992 51.9597 162.219C51.5271 161.814 50.8574 162.579 51.2374 162.968C51.2482 164.661 53.3072 166.484 53.1619 167.6C51.2469 168.091 48.7458 169.744 47.2019 169.45C46.4843 168.005 44.9498 166.051 45.2136 164.788C45.9174 164.483 47.1341 164.797 47.5897 164.062C47.7408 163.503 46.9031 163.562 46.5153 163.762C43.8079 165.023 44.3235 161.916 43.9039 160.426C43.9338 160.019 43.9202 158.879 43.1878 159.343C42.6404 160.197 43.3424 161.203 43.2845 162.056C43.2846 163.06 44.5465 164.652 42.6016 164.494C40.5717 164.85 38.6795 165.422 36.9872 166.236C36.062 162.821 35.8173 159.105 35.2116 155.295C35.1444 155.201 35.0321 155.143 34.9162 155.143H34.9161ZM44.038 165.009C44.4287 166.764 45.9976 168.688 46.2737 170.164C43.8414 171.05 41.6213 171.956 39.7224 172.952C38.6165 170.959 37.7357 169.005 37.1896 166.941C39.206 165.919 41.5355 165.434 44.038 165.009ZM36.5016 167.261C37.0545 169.338 37.94 171.303 39.0537 173.311C37.0489 174.388 35.4124 175.591 33.8879 176.815C32.6702 174.737 31.7007 172.661 31.0894 170.438C32.6647 169.121 34.4836 168.18 36.5016 167.261ZM46.942 170.749C48.1334 172.606 49.6259 174.409 51.52 175.985C48.7888 176.694 46.2219 177.55 44.2143 178.7C42.5255 177.114 41.1726 175.383 40.1107 173.63C42.0791 172.6 44.4007 171.667 46.942 170.749ZM39.441 173.989C40.5028 175.747 41.8507 177.485 43.5319 179.082C41.4637 180.353 39.6799 181.585 38.1768 183.088C36.7033 181.245 35.3949 179.364 34.2874 177.5C35.8061 176.273 37.4334 175.062 39.441 173.989Z" fill="#84A67A"/>
<path fill-rule="evenodd" clip-rule="evenodd" d="M35.044 155.012C34.306 155.121 34.7946 156.131 34.7922 156.553C35.2496 159.972 35.6081 163.167 36.4232 166.186C34.4152 167.163 32.6043 168.189 31.0119 169.524C30.6686 168.189 30.5805 166.752 30.5619 165.329C30.3476 164.863 29.7396 165.421 29.9252 165.872C29.5048 167.507 31.1373 169.568 29.8097 170.626C29.177 171.39 28.3525 172.147 28.0739 173.183C28.1175 173.664 28.676 173.59 28.7525 173.154C29.3067 172.467 30.6147 169.752 30.9319 171.532C31.5715 173.435 32.4628 175.24 33.5398 177.053C32.5114 178.115 31.4509 179.297 30.9725 180.896C31.046 181.466 31.7131 181.349 31.7127 180.847C32.2919 179.821 33.2155 177.846 34.1194 178.027C35.1945 179.81 36.4516 181.608 37.8391 183.385C37.02 184.383 36.0884 185.365 35.5518 186.649C35.583 187.194 36.321 187.211 36.3665 186.73C37.0206 186.01 37.7275 183.97 38.6331 184.409C40.0275 186.108 41.4129 187.884 42.8506 189.475C43.3376 189.718 43.5851 189.016 43.1351 188.732C41.7222 187.044 40.2352 185.319 38.8404 183.579C40.3902 181.981 42.2292 180.628 44.3453 179.237C46.8725 181.498 49.7564 183.693 52.2808 185.778C52.5358 186.286 53.503 186.293 53.3063 185.673C52.5095 184.85 51.4129 184.185 50.5056 183.35C48.7337 181.83 46.7185 180.426 45.0375 178.831C47.0595 177.619 49.6757 176.819 52.3806 176.181C53.8912 177.461 55.4115 178.803 56.9877 179.888C57.6149 180.025 57.6912 179.198 57.1159 179.027C56.1078 178.064 53.8568 176.742 53.679 175.879C54.9046 175.504 56.8835 175.481 56.9705 174.084C56.8236 173.535 55.9141 173.768 55.9464 174.264C54.448 175.193 51.9986 175.61 51.1176 173.751C50.1223 172.478 48.0062 170.675 48.3489 169.58C50.3924 169.19 53.0048 167.278 54.7083 167.919C55.7673 168.829 56.8869 169.872 58.2641 170.409C58.8577 170.399 58.8182 169.646 58.2798 169.558C57.4314 168.895 55.0797 167.743 55.6414 167.05C57.7464 166.27 59.8004 165.624 61.4556 164.673C61.7523 164.263 61.1273 163.829 60.7871 164.178C58.9555 165.049 56.847 165.812 54.6039 166.59C53.2804 165.186 52.5413 163.501 52.0876 161.783C51.655 161.383 50.9853 162.107 51.3653 162.489C51.3761 164.12 53.4351 165.955 53.2898 167.047C51.3748 167.462 48.8737 169.047 47.3298 168.752C46.6122 167.318 45.0777 165.427 45.3415 164.204C46.0453 163.903 47.262 164.203 47.7176 163.496C47.8687 162.958 47.031 163.013 46.6432 163.207C43.9358 164.427 44.4514 161.45 44.0318 160.026C44.0617 159.636 44.0481 158.541 43.3157 158.996C42.7683 159.824 43.4703 160.779 43.4124 161.6C43.4125 162.565 44.6744 164.072 42.7295 163.963C40.6996 164.355 38.8074 164.983 37.1151 165.852C36.1899 162.532 35.9452 158.942 35.3395 155.162C35.2723 155.068 35.16 155.011 35.0441 155.012H35.044ZM44.1659 164.433C44.5566 166.126 46.1255 167.994 46.4016 169.463C43.9693 170.357 41.7492 171.342 39.8503 172.427C38.7444 170.451 37.8636 168.548 37.3175 166.537C39.3339 165.446 41.6634 164.886 44.1659 164.433ZM36.6295 166.882C37.1824 168.909 38.0679 170.827 39.1816 172.818C37.1768 173.994 35.5403 175.294 34.0158 176.584C32.7981 174.512 31.8286 172.454 31.2173 170.247C32.7926 168.885 34.6115 167.873 36.6295 166.882ZM47.0699 170.045C48.2613 171.902 49.7538 173.763 51.6479 175.438C48.9167 176.097 46.3498 176.989 44.3422 178.218C42.6534 176.588 41.3005 174.843 40.2386 173.1C42.207 171.977 44.5286 170.963 47.0699 170.045ZM39.5689 173.492C40.6307 175.239 41.9786 176.991 43.6598 178.627C41.5916 179.988 39.8078 181.321 38.3047 182.887C36.8312 181.024 35.5228 179.132 34.4153 177.269C35.934 175.974 37.5613 174.664 39.5689 173.492Z" fill="#284021"/>
<path d="M70.2221 65.3038C70.2221 65.3038 65.7452 66.5408 63.5067 67.1594C61.2233 67.7903 58.7479 67.2668 56.403 66.9274C55.6949 66.8249 55.1937 66.1295 54.5946 65.7324C54.361 65.5776 54.14 65.4045 53.9133 65.2398" stroke="#284021" stroke-width="0.564444" stroke-linecap="round"/>
<path d="M31.3785 119.02C31.3785 119.02 46.3052 127.136 52.2718 123.273C56.5023 120.534 59.6125 113.977 60.2312 111.057C60.717 108.764 56.1688 107.401 56.5229 105.085C56.6973 103.943 59.3236 103.964 59.1458 102.822C58.9087 101.3 54.9623 102.552 54.8948 101.013C54.805 98.9634 59.5621 100.022 60.3216 98.1169C61.2047 95.9019 57.1956 93.5522 58.0605 91.3301C59.5491 87.5053 64.7493 85.8379 68.8237 85.3577C79.0814 84.1489 98.6714 93.6828 98.6714 93.6828" stroke="#284021" stroke-width="0.564444"/>
<path fill-rule="evenodd" clip-rule="evenodd" d="M48.6127 78.463C44.6945 78.561 41.137 81.5503 38.4826 84.4354C37.1675 85.8647 36.2882 86.2951 35.9501 89.6839C37.9126 87.7855 40.3971 85.5652 43.005 84.0734C45.9214 82.4052 52.2179 83.8093 52.4115 80.4538C52.4939 79.0261 50.0417 78.4273 48.6127 78.463Z" fill="#84A67A"/>
<path fill-rule="evenodd" clip-rule="evenodd" d="M44.8719 87.4846C42.3388 87.5479 40.0389 89.4805 38.3228 91.3457C37.4726 92.2697 36.9042 92.548 36.6855 94.7388C37.9543 93.5115 39.5605 92.0761 41.2465 91.1117C43.1319 90.0332 47.2026 90.9409 47.3278 88.7716C47.381 87.8486 45.7957 87.4615 44.8719 87.4846Z" fill="#84A67A"/>
<path fill-rule="evenodd" clip-rule="evenodd" d="M41.3596 95.2399C39.9529 95.2751 38.6757 96.3483 37.7227 97.3841C37.2505 97.8973 36.9349 98.0518 36.8134 99.2684C37.518 98.5869 38.41 97.7897 39.3463 97.2542C40.3934 96.6552 42.654 97.1593 42.7235 95.9546C42.7531 95.442 41.8727 95.227 41.3596 95.2399Z" fill="#84A67A"/>
<path fill-rule="evenodd" clip-rule="evenodd" d="M55.9076 148.921C60.9216 148.842 65.4742 146.441 68.8711 144.124C70.554 142.976 71.6792 142.63 72.112 139.908C69.6005 141.433 66.4211 143.216 63.0838 144.414C59.3517 145.754 51.2941 144.627 51.0463 147.322C50.9408 148.468 54.0789 148.949 55.9076 148.921Z" fill="#84A67A"/>
<path fill-rule="evenodd" clip-rule="evenodd" d="M60.6948 141.675C63.9363 141.624 66.8795 140.072 69.0756 138.573C70.1636 137.831 70.891 137.608 71.1708 135.848C69.5472 136.834 67.4917 137.987 65.3341 138.761C62.9214 139.628 57.7121 138.899 57.5519 140.641C57.4838 141.382 59.5125 141.693 60.6948 141.675Z" fill="#84A67A"/>
<path fill-rule="evenodd" clip-rule="evenodd" d="M65.1893 135.446C66.9895 135.417 68.624 134.555 69.8436 133.724C70.4478 133.311 70.8518 133.187 71.0071 132.21C70.1055 132.757 68.964 133.398 67.7658 133.828C66.4259 134.309 63.533 133.904 63.444 134.872C63.4062 135.283 64.5328 135.456 65.1893 135.446Z" fill="#84A67A"/>
<path d="M190.518 124.943C190.688 126.124 191.045 126.972 191.555 127.564C192.064 128.156 192.724 128.5 193.482 128.749C194.241 128.998 195.097 129.165 196.002 129.324C196.908 129.483 197.862 129.622 198.827 129.726C199.793 129.829 200.708 129.84 201.543 129.758C202.378 129.675 203.135 129.507 203.762 129.245C204.389 128.983 204.884 128.624 205.183 128.135C205.483 127.646 205.585 127.026 205.441 126.246C205.297 125.466 204.978 124.906 204.523 124.546C204.067 124.185 203.476 124.028 202.798 123.99C202.119 123.952 201.354 124.031 200.534 124.073C199.713 124.115 198.835 124.107 197.899 123.921C196.963 123.735 196.01 123.296 195.096 122.886C194.182 122.476 193.304 122.113 192.559 122.008C191.813 121.903 191.206 122.048 190.839 122.515C190.473 122.982 190.688 126.124 190.518 124.943L190.518 124.943Z" fill="#E1D6B9"/>
<path d="M192.251 121.382C192.96 121.405 193.782 121.631 194.652 121.941C195.647 122.296 196.703 122.748 197.778 122.966C198.854 123.183 199.863 123.216 200.815 123.203C201.767 123.19 202.662 123.148 203.461 123.249C204.261 123.35 204.962 123.597 205.507 124.052C206.052 124.507 206.438 125.165 206.62 126.026C206.802 126.887 206.69 127.616 206.346 128.216C206.001 128.816 205.424 129.288 204.692 129.65C203.961 130.012 203.078 130.268 202.107 130.412C201.135 130.557 200.074 130.584 198.957 130.48C197.84 130.376 196.777 130.221 195.792 130.044C194.806 129.868 193.898 129.679 193.103 129.385C192.8 129.273 192.515 129.142 192.247 128.989C191.708 128.679 191.61 127.344 192.087 127.777C192.53 128.179 193.06 128.444 193.657 128.644C194.384 128.888 195.206 129.052 196.075 129.207C196.945 129.363 197.862 129.498 198.789 129.599C199.717 129.7 200.596 129.713 201.398 129.636C202.2 129.559 202.926 129.399 203.528 129.149C204.129 128.899 204.604 128.556 204.891 128.087C205.178 127.619 205.275 127.026 205.136 126.278C204.998 125.53 204.691 124.992 204.254 124.644C203.817 124.297 203.25 124.142 202.6 124.102C201.949 124.062 201.216 124.133 200.429 124.169C199.641 124.206 198.797 124.196 197.897 124.018C196.997 123.84 196.079 123.42 195.2 123.025C194.322 122.63 193.48 122.278 192.767 122.171C192.677 122.158 192.59 122.148 192.505 122.142C192.287 122.127 192.083 122.132 191.9 122.177C191.689 122.23 191.356 121.382 191.954 121.384C192.051 121.384 192.252 121.485 192.251 121.382L192.251 121.382Z" fill="#394655"/>
<path d="M174.609 174.668C175.228 173.524 175.749 172.801 176.4 172.478C177.05 172.155 177.802 172.233 178.536 172.484C179.27 172.735 179.955 173.111 180.67 173.52C181.386 173.929 182.181 174.415 183.362 175.065C184.544 175.715 184.695 175.818 185.933 176.685C187.171 177.553 188.188 178.379 188.961 179.169C189.734 179.96 190.268 180.728 190.504 181.535C190.741 182.341 190.687 183.196 190.165 184.033C189.642 184.87 188.906 185.277 188.109 185.374C187.312 185.47 186.451 185.249 185.508 184.769C184.566 184.29 183.537 183.54 182.302 182.659C181.067 181.777 180.513 181.272 179.734 180.672C178.956 180.072 178.491 179.855 177.881 179.639C177.272 179.423 176.312 179.165 175.446 178.8C174.581 178.435 173.984 177.987 173.84 177.33C173.696 176.674 175.434 173.141 174.609 174.668Z" fill="#E1D6B9"/>
<path d="M174.59 179.191C175.348 179.568 176.332 179.888 177.011 180.163C177.788 180.478 178.192 180.717 178.988 181.371C179.784 182.024 180.613 182.699 182.034 183.645C183.454 184.591 184.651 185.36 185.763 185.815C186.875 186.27 187.905 186.423 188.843 186.241C189.781 186.06 190.627 185.553 191.221 184.639C191.814 183.726 191.911 182.763 191.683 181.835C191.456 180.907 190.895 180.003 190.051 179.069C189.207 178.134 188.075 177.153 186.684 176.135C185.292 175.116 184.946 174.864 183.56 174.126C182.174 173.388 181.299 172.884 180.472 172.452C179.645 172.02 178.81 171.617 177.968 171.402C177.648 171.32 177.332 171.272 177.028 171.267C176.413 171.256 176.537 172.777 177.097 172.62C177.615 172.475 178.086 172.733 178.643 172.935C179.322 173.182 179.969 173.644 180.595 174.026C181.22 174.407 181.98 174.519 182.956 175.068C183.932 175.617 183.842 175.569 185.009 176.389C186.175 177.21 187.168 178.03 187.938 178.818C188.708 179.606 189.253 180.371 189.5 181.142C189.747 181.913 189.697 182.697 189.232 183.433C188.766 184.169 188.115 184.498 187.409 184.521C186.702 184.543 185.915 183.779 185.065 183.25C184.216 182.722 183.041 182.054 181.901 181.25C180.762 180.446 180.836 180.605 180.055 180.166C179.274 179.727 178.709 179.644 178.083 179.512C177.458 179.379 176.6 179.139 175.795 178.785C175.694 178.74 175.596 178.695 175.501 178.647C175.258 178.525 175.033 178.398 174.858 178.247C174.656 178.073 173.644 178.702 174.28 179.025C174.383 179.078 174.682 179.103 174.59 179.191L174.59 179.191Z" fill="#394655"/>
<path d="M154.374 37.0578C154.758 38.3365 155.653 39.4242 156.751 40.2508C157.848 41.0773 159.126 41.6556 160.395 41.9969C161.664 42.3382 162.938 42.4438 164.232 42.2565C165.526 42.0692 167.071 41.7095 168.232 40.9173C169.392 40.1252 169.888 39.0372 170.224 38.0241C170.559 37.011 170.862 35.8593 171.703 34.5215C172.544 33.1837 173.317 31.8184 173.373 30.7702C173.429 29.7219 173.283 28.7395 172.915 27.8687C172.546 26.9979 171.989 26.3191 171.288 25.8104C170.587 25.3017 169.741 24.963 168.787 24.7791C167.834 24.5953 166.772 24.5656 165.636 24.6896C164.5 24.8136 163.291 25.0907 162.041 25.5462C160.791 26.0017 159.617 26.5949 158.566 27.3163C157.515 28.0376 156.588 28.8887 155.864 29.8513C155.14 30.814 154.623 31.8899 154.404 33.0246C154.184 34.1592 153.989 35.7791 154.374 37.0578Z" fill="#96D6FF"/>
<path d="M162.74 24.5678C163.749 24.284 164.729 24.1024 165.665 24.0113C166.913 23.8897 168.083 23.9298 169.135 24.1328C170.187 24.3357 171.123 24.7009 171.903 25.2516C172.683 25.8022 173.306 26.5372 173.728 27.4809C174.15 28.4247 174.333 29.4923 174.294 30.6324C174.256 31.7726 173.664 33.1721 172.722 34.6258C171.78 36.0794 171.429 37.3451 171.072 38.4439C170.716 39.539 169.861 40.488 168.411 41.2017C168.243 41.2833 167.946 40.8312 168.077 40.7349C169.233 39.902 169.61 38.8058 170.064 37.9104C170.395 36.9258 170.695 35.8055 171.521 34.5034C172.346 33.2012 173.105 31.8724 173.164 30.8519C173.222 29.8314 173.085 28.8739 172.729 28.026C172.372 27.1781 171.83 26.5186 171.146 26.0232C170.462 25.5278 169.636 25.1959 168.704 25.0165C167.771 24.8371 166.733 24.808 165.621 24.9283C165.065 24.9885 164.488 25.0871 163.9 25.225C163.312 25.3627 162.709 25.54 162.097 25.7612C160.872 26.2047 159.724 26.7824 158.696 27.4852C157.668 28.188 156.76 29.0186 156.052 29.9558C155.345 30.8931 154.84 31.9388 154.624 33.0422C154.407 34.1456 154.212 35.7189 154.583 36.9618C154.887 37.9825 155.513 38.8881 156.346 39.6057C156.502 39.7393 155.748 40.3826 155.271 40.016C154.381 39.3313 153.832 38.3256 153.525 37.2914C153.109 35.8928 153.213 34.184 153.442 32.94C153.671 31.696 154.227 30.52 155.008 29.4767C155.79 28.4334 156.793 27.5201 157.934 26.7525C159.076 25.9849 160.356 25.36 161.722 24.8867C162.064 24.7684 162.404 24.6628 162.74 24.5678L162.74 24.5678Z" fill="#394655"/>
<path d="M170.619 31.963C170.477 31.6744 170.052 31.5374 169.359 31.6498C168.305 31.8207 167.013 32.8318 166.276 33.6313C165.872 34.0699 165.422 34.4863 165.159 35.0272C165.07 35.2108 164.989 35.3966 165.013 35.6671C165.251 35.6478 165.46 35.3665 165.604 35.1496C166.17 34.2947 166.916 33.5577 167.832 33.0544C168.602 32.631 168.731 32.2844 169.486 32.0546C169.964 31.9091 170.217 32.044 170.619 31.963Z" fill="#394655"/>
<path d="M166.418 33.4679C166.242 33.2316 166.548 33.9308 166.788 34.04C167.688 34.4498 168.54 34.9638 169.423 35.4075C169.711 35.5519 169.829 35.2502 169.594 35.0624C169.354 34.8716 169.099 34.733 168.831 34.6008C168.58 34.4769 168.301 34.4097 168.06 34.2684C167.597 33.9971 167.365 33.6724 166.918 33.375C166.765 33.273 166.512 33.5937 166.419 33.4682L166.418 33.4679Z" fill="#394655"/>
<path fill-rule="evenodd" clip-rule="evenodd" d="M88.1042 69.2069C90.3207 58.4187 101.04 51.8734 115.465 45.404C131.95 38.0103 147.44 34.4712 160.669 35.8828C168.577 36.7267 176.442 39.0168 183.271 45.0073C191.099 51.8751 196.184 62.1894 198.339 72.3806C203.72 97.8335 200.857 125.826 191.598 150.137C186.722 162.939 180.86 175.795 169.789 183.858C156.238 193.727 138.967 200.182 122.205 200.123C104.983 200.062 82.5362 197.691 73.4327 183.064C68.7878 175.601 72.8314 164.821 76.6049 156.881C83.8314 141.676 87.4608 135.242 89.2937 120.383C92.3421 95.6719 84.9078 84.764 88.1042 69.2069Z" fill="#394655"/>
<path fill-rule="evenodd" clip-rule="evenodd" d="M156.388 37.788C144.852 37.6536 131.362 41.0153 116.988 47.3976C109.752 50.6105 103.585 53.8238 99.126 57.3459C94.6665 60.868 91.956 64.5379 90.9617 69.0837C89.3902 76.2675 90.2808 82.4194 91.3112 90.3082C92.3416 98.1971 93.4515 107.687 91.9581 120.738C90.1677 136.385 86.3996 143.718 79.4558 159.169C77.6843 163.11 75.9141 167.668 75.1556 171.9C74.3971 176.131 74.654 179.837 76.4094 182.683C80.4132 189.175 87.4476 193.182 95.8878 195.555C104.328 197.928 114.002 198.575 122.482 198.592C138.44 198.624 155.228 192.208 168.376 182.397C178.661 174.723 184.426 162.227 189.338 149.219C198.548 124.831 201.482 96.7977 196.292 71.9344C194.276 62.271 189.409 52.5617 182.219 46.3265C175.969 40.9058 168.818 38.8416 161.213 38.0584C159.645 37.8969 158.037 37.8072 156.388 37.788Z" fill="#96D6FF"/>
<path d="M118.012 49.2761C118.893 50.7538 120.199 51.7863 121.624 52.4331C123.049 53.0799 124.571 53.3609 126.003 53.3585C127.435 53.356 128.793 53.0672 130.071 52.4158C131.349 51.7645 132.829 50.8242 133.747 49.4673C134.665 48.1103 134.769 46.582 134.697 45.1573C134.626 43.7326 134.423 42.0883 134.725 40.0562C135.026 38.0241 135.268 36.005 134.845 34.5684C134.421 33.1318 133.803 31.8315 132.987 30.7334C132.171 29.6353 131.232 28.8397 130.214 28.3123C129.196 27.7849 128.099 27.5259 126.971 27.5248C125.844 27.5237 124.687 27.7805 123.554 28.3056C122.421 28.8308 121.313 29.6243 120.284 30.7199C119.255 31.8154 118.401 33.1126 117.738 34.5473C117.075 35.982 116.602 37.5549 116.359 39.173C116.116 40.7911 116.105 42.4531 116.382 44.0403C116.658 45.6276 117.13 47.7984 118.012 49.2761Z" fill="#96D6FF"/>
<path d="M120.601 29.2177C121.483 28.4632 122.407 27.8856 123.347 27.4686C124.6 26.9126 125.881 26.6442 127.13 26.6506C128.378 26.657 129.592 26.9362 130.719 27.5048C131.847 28.0734 132.885 28.9294 133.79 30.1081C134.694 31.2868 135.384 32.6828 135.857 34.2251C136.33 35.7674 136.288 37.7697 135.906 39.9566C135.371 43.2064 135.589 44.1998 134.941 43.7085C134.467 43.3494 134.05 42.5802 134.513 40.0748C134.81 38.0907 135.049 36.1189 134.639 34.7159C134.228 33.313 133.629 32.0418 132.834 30.9694C132.04 29.8971 131.125 29.1224 130.132 28.6079C129.139 28.0934 128.066 27.8391 126.965 27.839C125.863 27.839 124.733 28.0908 123.624 28.605C123.07 28.8622 122.519 29.1867 121.983 29.579C121.447 29.9712 120.923 30.4323 120.419 30.9672C119.411 32.0382 118.576 33.3047 117.927 34.7056C117.278 36.1065 116.815 37.6441 116.577 39.2229C116.34 40.8017 116.329 42.4213 116.599 43.9697C116.869 45.5182 117.327 47.6356 118.184 49.0784C118.888 50.2633 119.86 51.1701 120.976 51.775C121.184 51.8876 120.633 52.9265 120.012 52.6383C118.855 52.0998 117.939 51.057 117.242 49.8749C116.299 48.2764 115.725 46.0543 115.426 44.3382C115.127 42.6221 115.144 40.8263 115.414 39.0848C115.684 37.3432 116.203 35.6568 116.932 34.1215C117.66 32.5861 118.6 31.1988 119.734 30.0322C120.017 29.7405 120.308 29.4697 120.601 29.2179L120.601 29.2177Z" fill="#394655"/>
<path d="M127.594 36.8769C127.12 36.7514 126.536 37.1044 125.971 38.017C125.112 39.4032 124.983 41.9052 125.167 43.5557C125.267 44.4611 125.296 45.3973 125.656 46.2423C125.778 46.5292 125.911 46.8088 126.247 47.0516C126.463 46.7575 126.349 46.2345 126.243 45.8517C125.824 44.3431 125.722 42.7445 126.06 41.1842C126.344 39.8715 126.073 39.3762 126.565 38.2755C126.876 37.5787 127.285 37.4219 127.594 36.8769Z" fill="#394655"/>
<path d="M125.12 43.2286C124.672 43.1946 125.784 43.5425 126.15 43.3752C127.524 42.7472 128.969 42.2802 130.365 41.7061C130.819 41.519 130.591 41.0799 130.138 41.1638C129.678 41.2492 129.263 41.4046 128.842 41.5811C128.448 41.7467 128.091 42.0011 127.687 42.1374C126.91 42.3996 126.304 42.3422 125.514 42.5592C125.243 42.6335 125.359 43.2465 125.121 43.2284L125.12 43.2286Z" fill="#394655"/>
<g opacity="0.07">
<path fill-rule="evenodd" clip-rule="evenodd" d="M127.274 27.8943C127.086 27.895 126.896 27.904 126.704 27.9222C122.137 27.9193 118.863 32.0946 117.374 36.0059C115.805 40.4604 116.057 45.797 118.656 49.8148C119.177 50.737 120.428 51.2053 120.808 52.1223C120.172 53.2094 119.011 51.7712 118.473 51.29C117.388 50.3536 116.739 48.9876 116.289 47.7074C115.899 47.7884 115.396 47.9007 115.041 48.1494C115.052 48.1284 115.066 48.1035 115.077 48.0827C109.392 50.7556 102.825 54.424 99.1255 57.346C94.666 60.8681 91.9561 64.5376 90.9617 69.0833C89.3903 76.2672 90.2806 82.4197 91.311 90.3085C92.3414 98.1974 93.452 107.688 91.9586 120.738C90.1682 136.385 86.3997 143.718 79.4559 159.168C77.6844 163.11 75.9142 167.668 75.1556 171.899C74.3971 176.131 74.6545 179.836 76.41 182.683C80.4137 189.174 87.4472 193.182 95.8874 195.555C104.328 197.928 114.002 198.575 122.482 198.592C138.44 198.624 155.228 192.207 168.377 182.397C170.177 181.054 171.835 179.56 173.378 177.945C152.227 186.529 135.84 188.248 126.792 187.585C108.037 186.211 102.872 175.104 103.383 163.331C103.895 151.557 109.318 153.62 111.323 121.945C112.862 97.6202 105.787 96.4173 106.299 69.2871C106.421 62.8253 108.839 57.3288 112.979 53.5488C114.522 52.1397 118.689 51.6506 119.707 52.4144C121.176 53.5165 122.553 52.6899 124.573 52.047C126.592 51.4041 123.679 49.3499 122.737 48.1896C121.543 46.7201 120.212 44.6077 119.57 40.8421C119.088 38.0205 123.074 30.9469 129.238 28.2143C128.617 28.0079 127.961 27.8916 127.274 27.8943L127.274 27.8943Z" fill="black"/>
<path d="M130.244 130.144C125.581 137.355 125.75 146.008 127.192 149.062C128.633 152.116 134.06 152.286 134.484 151.268C134.908 150.25 135.366 148.724 134.518 144.567C133.671 140.41 132.025 137.016 132.619 135.234C133.212 133.453 130.244 130.144 130.244 130.144H130.244Z" fill="black"/>
<path d="M164.634 24.9172C163.156 25.1756 161.715 25.6686 160.369 26.325C158.064 27.4759 155.92 29.2362 154.887 31.6541C154.404 32.802 154.256 34.0622 154.208 35.297C154.117 35.6113 154.367 35.8135 154.667 35.7289C158.217 35.758 161.772 36.052 165.263 36.727C165.897 36.8461 166.53 36.9842 167.161 37.1317C164.894 36.1944 159.493 35.931 159.323 33.1067C159.165 30.484 160.075 29.3163 161.886 27.2924C162.563 26.5362 163.468 25.7445 164.634 24.9172Z" fill="black"/>
<path d="M188.636 106.023C187.013 106.834 185.57 109.042 185.552 110.406C185.52 112.939 187.305 114.011 187.889 114.173C188.473 114.335 189.772 114.205 189.804 114.92C189.837 115.634 189.902 119.271 189.999 119.92C190.096 120.57 190.096 121.187 192.173 121.057C194.251 120.927 196.263 120.407 196.523 120.18C196.782 119.953 197.366 119.433 197.561 118.557C197.756 117.68 198.275 113.036 196.75 111.413C195.224 109.789 193.926 109.172 192.823 108.231C191.719 107.289 188.636 106.023 188.636 106.023Z" fill="black"/>
</g>
<path d="M98.4012 193.338C99.6283 193.765 100.431 194.152 100.877 194.701C101.324 195.251 101.407 195.938 101.32 196.629C101.234 197.32 101.016 197.981 100.775 198.673C100.533 199.365 100.233 200.138 99.8573 201.279C99.4819 202.419 99.4154 202.567 98.8433 203.783C98.2712 205 97.6922 206.011 97.0962 206.8C96.5002 207.588 95.8754 208.157 95.1515 208.463C94.4275 208.769 93.5961 208.819 92.6838 208.443C91.7715 208.068 91.2271 207.451 90.967 206.743C90.7069 206.036 90.738 205.233 91.0005 204.328C91.2631 203.423 91.7659 202.409 92.3522 201.194C92.9385 199.979 93.3061 199.421 93.7184 198.65C94.1306 197.879 94.2407 197.434 94.32 196.86C94.3993 196.286 94.4457 195.39 94.6139 194.567C94.782 193.745 95.0871 193.155 95.6863 192.949C96.2856 192.744 100.039 193.907 98.4012 193.338L98.4012 193.338Z" fill="#E1D6B9"/>
<path d="M94.0592 193.84C93.8564 194.566 93.7558 195.491 93.6348 196.135C93.4965 196.872 93.3515 197.264 92.8919 198.057C92.4322 198.85 91.9589 199.675 91.3498 201.065C90.7408 202.455 90.254 203.623 90.0511 204.678C89.8482 205.733 89.9179 206.679 90.2888 207.505C90.6598 208.33 91.3238 209.035 92.3242 209.465C93.3246 209.895 94.2688 209.873 95.111 209.561C95.9532 209.249 96.7024 208.64 97.4215 207.772C98.1406 206.903 98.8439 205.769 99.5288 204.397C100.214 203.025 100.383 202.684 100.8 201.349C101.216 200.014 101.517 199.167 101.757 198.372C101.998 197.577 102.209 196.777 102.239 195.993C102.25 195.695 102.229 195.404 102.171 195.129C102.052 194.574 100.62 194.86 100.887 195.347C101.135 195.798 100.987 196.252 100.91 196.778C100.815 197.418 100.508 198.055 100.273 198.663C100.039 199.271 100.091 199.969 99.7698 200.913C99.4482 201.856 99.4745 201.769 98.9328 202.916C98.391 204.062 97.8125 205.052 97.2182 205.837C96.6238 206.621 96.0047 207.201 95.317 207.512C94.6294 207.823 93.8669 207.868 93.0634 207.533C92.2599 207.198 91.8076 206.648 91.6378 206.014C91.468 205.379 92.036 204.581 92.3645 203.754C92.693 202.928 93.0868 201.791 93.6187 200.671C94.1507 199.551 94.0144 199.636 94.2715 198.881C94.5287 198.126 94.4888 197.607 94.4847 197.028C94.4806 196.448 94.5307 195.647 94.7018 194.88C94.7232 194.784 94.7464 194.69 94.7721 194.599C94.8382 194.366 94.9129 194.148 95.0209 193.973C95.1453 193.771 94.3297 192.93 94.1532 193.541C94.1248 193.64 94.1628 193.913 94.0592 193.84Z" fill="#394655"/>
<path d="M188.624 66.1311C188.462 68.4147 188.979 70.9578 189.568 73.5635C190.157 76.1693 190.778 78.8625 191.174 81.6113C191.571 84.36 191.756 87.1696 191.936 89.8011C192.116 92.4325 192.318 94.8639 192.969 96.8913C193.62 98.9188 194.692 100.366 196.143 101.283C197.593 102.199 199.352 103.591 201.314 103.477C203.277 103.363 205.339 102.708 207.249 101.476C209.159 100.244 210.912 98.4294 212.321 96.0486C213.73 93.6677 214.664 90.9519 215.173 88.1352C215.682 85.3185 215.772 82.4057 215.517 79.6121C215.263 76.8184 214.278 73.2333 213.411 70.8516C212.544 68.47 211.318 66.3377 209.611 64.5179C207.904 62.698 205.856 61.3479 203.631 60.4355C201.406 59.5231 199.014 59.0537 196.802 59.1031C194.591 59.1525 192.57 59.7306 191.11 60.9026C189.65 62.0745 188.785 63.8476 188.624 66.1311Z" fill="#394655"/>
<path d="M189.84 66.7909C189.609 68.844 189.931 71.1587 190.376 73.5803C190.821 76.0019 191.364 78.5469 191.796 81.1485C192.228 83.7502 192.554 86.4132 192.884 88.9079C193.215 91.4026 193.566 93.7099 194.251 95.6232C194.936 97.5366 195.923 98.8872 197.207 99.7254C198.491 100.564 200.065 101.904 201.763 101.754C203.46 101.604 205.24 100.945 206.883 99.7581C208.526 98.5713 210.028 96.852 211.223 94.6248C212.417 92.3975 213.195 89.8786 213.602 87.2776C214.01 84.6766 214.053 81.9974 213.798 79.4284C213.543 76.8595 212.613 73.4858 211.819 71.293C211.026 69.1002 209.917 67.1337 208.39 65.4561C206.863 63.7785 205.046 62.5366 203.087 61.7017C201.129 60.8667 199.038 60.4437 197.111 60.4905C195.185 60.5374 193.432 61.0617 192.147 62.1112C190.863 63.1606 190.07 64.7378 189.84 66.7909Z" fill="white"/>
<path d="M210.056 83.6417C207.767 82.496 206.691 79.1066 207.651 76.0712C208.611 73.0359 211.245 71.504 213.533 72.6498C215.821 73.7955 216.898 77.1849 215.938 80.2203C214.978 83.2556 212.344 84.7875 210.056 83.6417Z" fill="#394655"/>
<path d="M212.892 78.7598C211.766 78.1964 211.237 76.5294 211.709 75.0366C212.181 73.5438 213.476 72.7905 214.602 73.3539C215.727 73.9174 216.257 75.5843 215.785 77.0771C215.312 78.5699 214.017 79.3233 212.892 78.7598Z" fill="white"/>
<path d="M196.949 110.705L194.559 111.013L193.16 111.143C192.714 111.185 192.342 111.442 192.089 111.787C191.836 112.132 191.743 112.58 191.73 113.058L191.657 115.767L191.437 118.504C191.397 118.996 191.573 119.406 191.842 119.688C192.111 119.971 192.49 120.105 192.913 120.067L194.325 119.937L197.102 119.551C197.635 119.477 198.107 119.212 198.434 118.851C198.761 118.49 198.926 118.031 198.915 117.553L198.852 114.87L198.744 112.197C198.725 111.722 198.465 111.323 198.134 111.055C197.804 110.787 197.38 110.653 196.949 110.705V110.705Z" fill="#2E3436"/>
<path d="M196.605 111.562L194.654 111.814L193.719 111.884C193.364 111.91 193.058 112.126 192.842 112.41C192.626 112.693 192.524 113.063 192.502 113.457L192.376 115.679L192.156 117.919C192.117 118.319 192.243 118.66 192.455 118.891C192.668 119.122 192.976 119.225 193.328 119.199L194.289 119.126L196.496 118.823C196.914 118.765 197.293 118.55 197.563 118.255C197.833 117.96 197.984 117.584 197.989 117.19L198.013 114.988L197.999 112.793C197.997 112.402 197.808 112.073 197.551 111.851C197.294 111.63 196.957 111.517 196.605 111.562Z" fill="white"/>
<path d="M186.606 110.027C186.669 110.865 187.113 111.567 187.731 112.085C188.35 112.602 189.194 112.914 190.145 113.03C191.095 113.145 192.14 113.075 193.172 112.951C194.205 112.827 195.227 112.655 196.23 112.516C197.233 112.376 198.132 112.284 198.924 112.18C199.716 112.076 200.393 111.949 200.931 111.716C201.47 111.484 201.873 111.147 202.13 110.683C202.386 110.218 202.494 109.625 202.409 108.918C202.324 108.211 202.049 107.459 201.626 106.737C201.204 106.014 200.636 105.321 199.968 104.729C199.299 104.136 198.531 103.643 197.675 103.312C196.818 102.981 195.873 102.812 194.829 102.853C193.785 102.895 192.734 103.144 191.727 103.555C190.72 103.966 189.76 104.54 188.953 105.22C188.146 105.9 187.474 106.666 187.084 107.508C186.684 108.37 186.553 109.312 186.606 110.027Z" fill="#394655"/>
<path d="M189.87 110.899C190.357 111.232 191.005 111.42 191.724 111.501C192.443 111.582 193.23 111.562 194.022 111.511C194.813 111.46 195.61 111.38 196.394 111.301C197.178 111.223 197.878 111.152 198.492 111.055C199.106 110.957 199.631 110.828 200.045 110.625C200.46 110.422 200.766 110.145 200.948 109.78C201.13 109.414 201.19 108.961 201.103 108.432C201.016 107.904 200.791 107.351 200.456 106.825C200.122 106.298 199.679 105.799 199.156 105.375C198.632 104.95 198.028 104.602 197.358 104.371C196.688 104.141 195.952 104.029 195.15 104.073C194.347 104.117 193.551 104.313 192.795 104.631C192.039 104.949 191.325 105.39 190.718 105.911C190.111 106.432 189.616 107.032 189.302 107.652C188.988 108.272 188.856 108.912 188.957 109.501C189.058 110.089 189.383 110.566 189.87 110.899V110.899Z" fill="#E1D0CB"/>
<path d="M191.514 104.533C191.724 105.015 192.118 105.419 192.639 105.738C193.159 106.057 193.805 106.291 194.497 106.448C195.188 106.604 195.922 106.684 196.633 106.689C197.344 106.694 198.032 106.623 198.668 106.469C199.304 106.316 199.831 106.094 200.269 105.82C200.707 105.546 201.055 105.22 201.319 104.853C201.583 104.487 201.762 104.079 201.846 103.641C201.93 103.203 201.918 102.734 201.784 102.253C201.65 101.772 201.404 101.324 201.061 100.934C200.717 100.544 200.276 100.212 199.758 99.9611C199.24 99.7103 198.645 99.5414 197.996 99.4759C197.347 99.4105 196.645 99.4485 195.916 99.6071C195.187 99.7657 194.5 100.03 193.889 100.368C193.279 100.706 192.743 101.118 192.322 101.573C191.901 102.028 191.594 102.526 191.444 103.031C191.294 103.537 191.303 104.05 191.514 104.533Z" fill="#394655"/>
<path d="M128.312 81.7491C127.474 85.8841 127.482 90.0955 128.148 94.1673C128.813 98.2392 130.131 102.167 132 105.706C133.869 109.244 136.294 112.393 139.266 114.915C142.237 117.438 145.76 119.336 149.808 120.369C153.855 121.402 158.042 121.467 162.11 120.681C166.178 119.895 170.122 118.259 173.665 115.916C177.207 113.573 180.347 110.524 182.824 106.938C185.301 103.352 187.113 99.2283 188.036 94.7498C188.958 90.2714 188.903 85.8659 188.042 81.762C187.181 77.6581 185.515 73.8561 183.232 70.5557C180.948 67.2552 178.049 64.4565 174.712 62.323C171.375 60.1895 167.605 58.7206 163.539 58.046C159.472 57.3713 155.489 57.5481 151.718 58.4008C147.947 59.2536 144.384 60.782 141.196 62.8731C138.007 64.9643 135.197 67.62 132.981 70.7816C130.764 73.9432 129.15 77.6141 128.312 81.7491Z" fill="#394655"/>
<path d="M130.525 81.2101C129.611 85.0782 129.469 89.0772 129.958 92.9916C130.447 96.906 131.563 100.731 133.236 104.196C134.908 107.661 137.142 110.762 139.924 113.24C142.706 115.718 146.042 117.574 149.886 118.575C153.731 119.576 157.716 119.626 161.587 118.867C165.458 118.107 169.211 116.537 172.587 114.311C175.963 112.084 178.96 109.2 181.334 105.827C183.708 102.453 185.457 98.5902 186.367 94.4145C187.276 90.2388 187.261 86.1497 186.485 82.3493C185.709 78.5489 184.175 75.0372 182.064 71.9831C179.952 68.9289 177.266 66.3321 174.172 64.3282C171.078 62.3243 167.579 60.9119 163.799 60.2031C160.019 59.4943 156.31 59.5502 152.794 60.2253C149.277 60.9004 145.949 62.195 142.956 64.0254C139.964 65.8558 137.31 68.2234 135.177 71.0942C133.045 73.965 131.439 77.342 130.525 81.2101Z" fill="white"/>
<path d="M171.315 97.8759C166.657 97.0494 163.55 92.602 164.376 87.9424C165.201 83.2828 169.647 80.1754 174.305 81.002C178.963 81.8285 182.069 86.2759 181.244 90.9355C180.418 95.5951 175.973 98.7024 171.315 97.8759Z" fill="#394655"/>
<path d="M176.494 90.3774C174.203 89.971 172.675 87.7837 173.081 85.4921C173.487 83.2005 175.673 81.6723 177.964 82.0788C180.255 82.4853 181.783 84.6725 181.377 86.9641C180.971 89.2557 178.785 90.7839 176.494 90.3774Z" fill="white"/>
<g opacity="0.07">
<path d="M157.964 59.5854C148.454 59.6538 138.995 64.607 133.936 72.7384C129.554 79.6066 128.699 88.2508 130.371 96.1083C131.925 103.341 135.642 110.373 141.686 114.814C145.949 117.884 151.213 119.656 156.487 119.447C161.452 119.553 166.327 117.959 170.648 115.599C172.741 114.441 174.69 113.034 176.468 111.435C173.614 111.731 170.301 111.928 166.434 111.964C149.016 112.129 141.586 100.766 140.738 88.2851C140.102 78.9135 142.454 67.7525 158.798 59.5897C158.52 59.5852 158.242 59.5819 157.964 59.5854V59.5854Z" fill="black"/>
<path d="M196.459 60.4292C194.127 60.5952 191.757 61.6697 190.625 63.8001C189.446 65.7604 189.706 68.1301 189.77 70.3117C190.298 74.6871 191.405 78.9693 191.987 83.3384C192.636 87.362 192.894 91.4778 194.039 95.4066C194.549 96.8157 195.244 98.2709 196.411 99.2482C197.368 99.7721 198.547 99.5197 199.528 100.015C200.39 100.293 200.928 101.03 201.507 101.664C202.325 102.089 203.269 101.547 204.09 101.366C205.363 100.91 206.507 100.229 207.526 99.3903C206.476 99.4177 205.507 99.4384 204.806 99.4384C200.767 99.4384 198.883 96.7698 197.003 94.7543C195.148 92.7652 193.007 73.095 193.79 69.1299C194.194 67.0827 194.004 64.1607 196.459 60.4292Z" fill="black"/>
</g>
<path d="M134.557 128.091C133.387 128.233 132.537 128.574 131.925 129.12C131.313 129.666 130.934 130.423 130.647 131.409C130.36 132.395 130.154 133.616 129.989 134.992C129.824 136.368 129.722 137.89 129.701 139.398C129.679 140.906 129.78 142.318 129.95 143.571C130.119 144.825 130.349 145.921 130.649 146.828C130.949 147.735 131.326 148.457 131.847 148.953C132.369 149.448 133.038 149.724 133.876 149.631C134.713 149.539 135.304 149.124 135.67 148.539C136.036 147.953 136.172 147.192 136.14 146.284C136.108 145.376 135.903 144.314 135.697 143.077C135.49 141.839 135.295 140.415 135.345 138.837C135.395 137.259 135.785 135.596 136.217 134.125C136.649 132.654 137.083 131.395 137.253 130.453C137.424 129.512 137.341 128.868 136.914 128.479C136.488 128.089 133.387 128.233 134.557 128.091Z" fill="#E1D6B9"/>
<path d="M137.907 130.058C137.818 130.905 137.519 132.008 137.168 133.341C136.767 134.864 136.327 136.681 136.246 138.481C136.166 140.28 136.366 141.9 136.562 143.305C136.758 144.71 136.928 145.916 136.885 146.956C136.841 147.996 136.591 148.875 136.105 149.552C135.618 150.229 134.903 150.706 133.975 150.832C133.046 150.959 132.273 150.672 131.653 150.126C131.033 149.58 130.562 148.767 130.18 147.734C129.798 146.7 129.497 145.44 129.274 144.003C129.051 142.565 128.917 140.95 128.948 139.246C128.979 137.542 129.115 135.899 129.308 134.463C129.502 133.028 129.736 131.807 130.069 130.838C130.196 130.469 130.341 130.135 130.507 129.834C130.843 129.224 132.131 129.184 131.677 129.727C131.257 130.23 130.964 130.869 130.736 131.659C130.458 132.622 130.257 133.809 130.099 135.14C129.941 136.471 129.845 137.939 129.826 139.394C129.806 140.849 129.903 142.211 130.069 143.424C130.234 144.636 130.459 145.699 130.753 146.58C131.046 147.461 131.414 148.164 131.917 148.645C132.42 149.125 133.064 149.39 133.865 149.299C134.667 149.208 135.23 148.805 135.576 148.236C135.922 147.667 136.047 146.926 136.012 146.043C135.978 145.161 135.781 144.13 135.584 142.934C135.387 141.737 135.205 140.365 135.252 138.846C135.299 137.327 135.667 135.726 136.078 134.302C136.488 132.879 136.907 131.65 137.074 130.725C137.095 130.609 137.113 130.498 137.126 130.391C137.16 130.117 137.174 129.87 137.146 129.655C137.114 129.408 137.991 129.017 137.933 129.709C137.923 129.821 137.8 130.062 137.907 130.058L137.907 130.058Z" fill="#394655"/>
</g>
<path d="M241.75 99V33.375H249.906V61.9688H258.344V69.9375H249.906V99H241.75ZM263.031 69.9375V61.9688H271.375V33.375H279.625V99H271.375V69.9375H263.031ZM287.688 41.3438C287.688 39.4062 288.594 38.0312 290.406 37.2188C291.031 36.9688 291.656 36.8438 292.281 36.8438C294.156 36.8438 295.531 37.7188 296.406 39.4688C296.656 40.0938 296.781 40.7188 296.781 41.3438C296.781 43.2188 295.906 44.5938 294.156 45.4688C293.531 45.7188 292.906 45.8438 292.281 45.8438C290.344 45.8438 288.938 44.9688 288.062 43.2188C287.812 42.5938 287.688 41.9688 287.688 41.3438ZM288.344 99V49.5938H296.219V99H288.344ZM305.312 101.156L308.781 86.9062H316.375L312.906 101.156H305.312ZM344.594 56.4375V48.8438H350.781V32.625H358.75V48.8438H364.75V56.5312H358.75V83.4375C358.75 87.875 360.562 90.3438 364.188 90.8438C364.875 90.9688 365.562 91.0312 366.25 91.0312H367.562L369.344 99H365.969C358.281 98.9375 353.562 96.0625 351.812 90.375C351.188 88.25 350.875 85.625 350.875 82.5L350.781 56.4375H344.594ZM373.656 99.2812V32.8125H381.062V52.4062C383.375 50.3438 386.219 49.2812 389.594 49.2188V56.5312C386.781 56.5312 384.406 57.7812 382.469 60.2812C381.594 61.4688 381.156 62.5625 381.156 63.5625V99.2812H373.656ZM394 56.5312V49.2188C399.812 49.2188 404.188 51.3125 407.125 55.5C408.688 57.75 409.469 60.1562 409.469 62.7188V99.2812H401.969V63.5625C401.969 61.1875 400.906 59.2812 398.781 57.8438C397.406 56.9688 395.812 56.5312 394 56.5312ZM416.406 85.125V61.875C416.469 59 417.844 56.1562 420.531 53.3438C423.781 50.0312 427.719 48.3438 432.344 48.2812V55.6875C429.344 55.6875 427 57 425.312 59.625C424.625 60.75 424.281 61.7812 424.281 62.7188V69.0938H445.281V62.7188C445.281 59.9062 443.844 57.8438 440.969 56.5312C439.656 55.9062 438.312 55.5938 436.938 55.5938V48.2812C441.25 48.2812 445.094 49.8125 448.469 52.875C451.281 55.5625 452.719 58.5312 452.781 61.7812V76.6875H424.281V85.125C424.281 86.875 425.281 88.5 427.281 90C428.906 91.125 430.625 91.6875 432.438 91.6875V99C426.75 99 422.281 96.6875 419.031 92.0625C417.281 89.625 416.406 87.3125 416.406 85.125ZM436.938 99V91.5938C440.688 91.5938 443.5 89.9688 445.375 86.7188C445.75 86.0312 446.031 85.375 446.219 84.75L452.875 87.1875C451.75 91.5 449.188 94.75 445.188 96.9375C442.625 98.3125 439.875 99 436.938 99ZM460.562 99V48.2812H468.531V55.2188C470.156 52.4688 472.594 50.4375 475.844 49.125C477.594 48.4375 479.312 48.0938 481 48.0938H482.688L480.812 55.7812C477.375 55.8438 474.312 57.6875 471.625 61.3125C469.562 64.1875 468.531 67.1562 468.531 70.2188V99H460.562ZM487.75 85.125V61.875C487.812 59 489.188 56.1562 491.875 53.3438C495.125 50.0312 499.062 48.3438 503.688 48.2812V55.6875C500.688 55.6875 498.344 57 496.656 59.625C495.969 60.75 495.625 61.7812 495.625 62.7188V69.0938H516.625V62.7188C516.625 59.9062 515.188 57.8438 512.312 56.5312C511 55.9062 509.656 55.5938 508.281 55.5938V48.2812C512.594 48.2812 516.438 49.8125 519.812 52.875C522.625 55.5625 524.062 58.5312 524.125 61.7812V76.6875H495.625V85.125C495.625 86.875 496.625 88.5 498.625 90C500.25 91.125 501.969 91.6875 503.781 91.6875V99C498.094 99 493.625 96.6875 490.375 92.0625C488.625 89.625 487.75 87.3125 487.75 85.125ZM508.281 99V91.5938C512.031 91.5938 514.844 89.9688 516.719 86.7188C517.094 86.0312 517.375 85.375 517.562 84.75L524.219 87.1875C523.094 91.5 520.531 94.75 516.531 96.9375C513.969 98.3125 511.219 99 508.281 99ZM532 95.5312C532 93.5312 532.906 92.0938 534.719 91.2188C535.344 90.9688 535.969 90.8438 536.594 90.8438C538.594 90.8438 540 91.7812 540.812 93.6562C541.062 94.2812 541.188 94.9062 541.188 95.5312C541.188 97.5312 540.281 98.9375 538.469 99.75C537.844 100 537.219 100.125 536.594 100.125C534.594 100.125 533.188 99.2188 532.375 97.4062C532.125 96.7812 532 96.1562 532 95.5312ZM532.844 83.4375V33.375H540.531V83.4375H532.844Z" fill="#96D6FF"/>
<defs>
<clipPath id="clip0">
<rect width="289" height="218" fill="white" transform="translate(0 17)"/>
</clipPath>
</defs>
</svg>
